<svg width="264" height="112" viewBox="0 0 264 112" fill="none" xmlns="http://www.w3.org/2000/svg">
<path d="M11.3301 56.1641L10.6035 56.3457C10.4824 56.4668 10.1393 56.5677 9.57422 56.6484C9.00911 56.7292 8.46419 56.7292 7.93945 56.6484C7.41471 56.5677 7.17253 56.3659 7.21289 56.043C7.13216 54.8724 7.87891 54.3477 9.45312 54.4688C11.1081 54.5898 12.0768 54.0651 12.3594 52.8945L15.2051 42.0566L16.3555 40.9062C16.7591 41.0273 16.9609 41.3906 16.9609 41.9961L16.9004 42.6016L14.0547 54.0449V54.3477C14.3776 54.4688 14.862 54.5293 15.5078 54.5293C16.1536 54.5293 17.304 54.3073 18.959 53.8633C20.6139 53.3789 21.5625 53.1367 21.8047 53.1367C21.8047 55.3568 20.3112 56.4668 17.3242 56.4668C16.3958 56.4668 15.3464 56.3659 14.1758 56.1641C13.2878 58.1823 12.8438 60.0391 12.8438 61.7344C12.8438 63.3893 13.2878 64.9232 14.1758 66.3359C15.0638 67.7083 16.4362 68.3945 18.293 68.3945C20.1901 68.112 21.6432 67.668 22.6523 67.0625C23.7018 66.4167 24.4688 65.9727 24.9531 65.7305C25.4375 65.4479 25.9219 65.3066 26.4062 65.3066C26.8906 65.3066 27.4154 65.3672 27.9805 65.4883C26.8503 67.5065 23.5807 68.8385 18.1719 69.4844C18.0508 69.4844 17.9499 69.4844 17.8691 69.4844C15.084 69.4844 13.207 68.4551 12.2383 66.3965C11.5117 64.903 11.1484 63.1875 11.1484 61.25C11.1484 59.2721 11.209 57.5768 11.3301 56.1641ZM49.7773 66.2148C47.5977 67.7891 45.2161 68.5762 42.6328 68.5762C41.3008 68.5762 40.2109 68.1725 39.3633 67.3652C38.556 66.5579 38.0514 65.5488 37.8496 64.3379C37.6478 63.0866 37.5065 61.9766 37.4258 61.0078C37.3854 59.9987 37.3652 59.1712 37.3652 58.5254C37.3652 57.8392 37.4056 57.1328 37.4863 56.4062C37.3652 55.9622 36.8001 55.7402 35.791 55.7402C34.8223 55.7402 33.8737 56.2448 32.9453 57.2539C32.0169 58.263 31.25 59.474 30.6445 60.8867C30.0794 62.2591 29.5143 63.6315 28.9492 65.0039C28.4245 66.3763 27.9199 67.4056 27.4355 68.0918C26.9512 68.778 26.5475 69.1211 26.2246 69.1211C25.9017 69.1211 25.6595 69.0807 25.498 69C25.4577 68.7578 25.4375 68.4753 25.4375 68.1523C25.4375 66.1341 26.1439 61.7949 27.5566 55.1348C28.9694 48.4746 30.362 42.763 31.7344 38C31.8151 37.7174 32.0371 37.112 32.4004 36.1836C32.804 35.2148 33.2279 34.5286 33.6719 34.125C34.1159 33.681 34.5801 33.459 35.0645 33.459C35.5488 33.459 35.9323 33.5599 36.2148 33.7617V33.6406C36.6185 33.9232 36.9414 34.6094 37.1836 35.6992C37.4258 36.7891 37.5469 37.6569 37.5469 38.3027C37.5469 42.097 36.5579 45.5684 34.5801 48.7168C33.7728 50.0085 32.9655 51.2194 32.1582 52.3496C31.3509 53.4798 30.7051 54.5495 30.2207 55.5586C29.7767 56.5677 29.5547 57.3145 29.5547 57.7988C29.5547 58.2832 29.5547 58.5859 29.5547 58.707C31.7747 55.599 34.1361 54.0449 36.6387 54.0449C37.5267 54.0449 38.1725 54.1458 38.5762 54.3477C38.8991 54.5495 39.1009 54.832 39.1816 55.1953C39.2624 55.5182 39.3027 56.3861 39.3027 57.7988C39.3431 59.1712 39.4036 60.362 39.4844 61.3711C39.6055 62.3398 39.7871 63.3893 40.0293 64.5195C40.2715 65.6094 40.5944 66.3158 40.998 66.6387C41.4421 66.9616 41.8457 67.123 42.209 67.123C42.5723 67.123 42.9557 67.0221 43.3594 66.8203C46.9115 65.0846 49.2526 64.2168 50.3828 64.2168C50.9076 64.2168 51.1699 64.3783 51.1699 64.7012C51.1699 65.0241 50.7057 65.5286 49.7773 66.2148ZM33.4297 38.7266C31.9362 44.4987 31.1693 47.7884 31.1289 48.5957C31.1289 49.3626 31.1289 49.7865 31.1289 49.8672L31.1895 50.7148C33.0866 49.9479 34.4388 46.5977 35.2461 40.6641C35.4883 38.9284 35.6094 37.5156 35.6094 36.4258C35.6094 35.3359 35.4277 34.791 35.0645 34.791C34.7012 34.791 34.1562 36.1029 33.4297 38.7266ZM49.959 62.6426C49.9186 62.2793 49.8984 61.9362 49.8984 61.6133C49.8984 59.0299 50.7461 56.3659 52.4414 53.6211C54.1771 50.8763 56.3971 49.5039 59.1016 49.5039C59.6263 49.5039 60.0501 49.6654 60.373 49.9883C60.696 50.2708 60.8574 50.7754 60.8574 51.502C60.8574 52.1882 60.6556 53.0156 60.252 53.9844C59.8887 54.9128 59.3034 55.8613 58.4961 56.8301C57.7292 57.7988 57.0632 58.5859 56.498 59.1914C55.9329 59.7969 55.1257 60.584 54.0762 61.5527C53.0671 62.5215 52.4616 63.1068 52.2598 63.3086C52.2194 63.6315 52.1992 63.8132 52.1992 63.8535C52.1992 64.9434 52.724 65.791 53.7734 66.3965C54.8229 67.002 55.9128 67.3047 57.043 67.3047C59.7474 67.3047 61.8867 66.8203 63.4609 65.8516C65.0755 64.8828 66.9323 63.248 69.0312 60.9473C69.3542 60.5436 69.5358 60.2207 69.5762 59.9785C69.6569 59.7363 69.8789 59.474 70.2422 59.1914C70.6458 59.3529 70.8477 59.7363 70.8477 60.3418C70.444 61.5931 69.6367 62.9453 68.4258 64.3984C67.2148 65.8112 65.7819 67.0221 64.127 68.0312C61.8262 69.3633 59.8685 70.0293 58.2539 70.0293C56.6797 70.0293 55.1458 69.4844 53.6523 68.3945C52.1589 67.3047 50.9277 65.3874 49.959 62.6426ZM59.2227 51.7441C57.487 51.7441 55.8724 52.6725 54.3789 54.5293C52.8854 56.3861 52.1387 58.1621 52.1387 59.8574C52.1387 60.4225 52.179 60.8262 52.2598 61.0684C53.7533 60.2611 55.2871 58.8887 56.8613 56.9512C58.4355 54.9733 59.2227 53.2376 59.2227 51.7441ZM98.3965 57.9805C98.3965 55.7604 98.4772 53.1973 98.6387 50.291C99.0423 50.291 99.3854 50.4525 99.668 50.7754C99.9909 51.0579 100.132 51.502 100.092 52.1074C100.051 52.7129 100.031 54.4284 100.031 57.2539C100.031 60.0794 100.072 61.8757 100.152 62.6426C100.314 64.9837 100.778 66.1543 101.545 66.1543C101.949 66.1543 102.453 65.8314 103.059 65.1855C104.512 63.571 105.844 61.0078 107.055 57.4961C107.499 56.1237 107.721 55.2559 107.721 54.8926C107.721 54.4889 107.721 54.2467 107.721 54.166H109.174C109.255 54.61 109.396 55.8411 109.598 57.8594C110.163 62.6628 110.788 65.4479 111.475 66.2148C112.403 66.013 113.069 64.7214 113.473 62.3398C113.876 59.918 114.078 57.9603 114.078 56.4668L115.229 55.2559C115.551 56.3053 115.773 57.0117 115.895 57.375C116.056 57.7383 116.298 58.1217 116.621 58.5254C116.944 58.929 117.307 59.1712 117.711 59.252C118.155 59.3327 118.76 59.373 119.527 59.373C121.021 58.4043 121.909 57.9199 122.191 57.9199C122.514 57.9199 122.676 57.9805 122.676 58.1016C122.676 58.6667 122.171 59.3125 121.162 60.0391C120.193 60.7253 119.588 61.0684 119.346 61.0684C119.104 61.0684 118.962 61.0684 118.922 61.0684C117.428 61.0684 116.399 60.8665 115.834 60.4629C115.794 60.6243 115.693 61.1087 115.531 61.916C115.37 62.7233 115.188 63.4499 114.986 64.0957C114.785 64.7012 114.522 65.3672 114.199 66.0938C113.513 67.7083 112.504 68.5156 111.172 68.5156C110.607 68.5156 110.122 68.0918 109.719 67.2441C109.194 66.235 108.73 64.9837 108.326 63.4902C107.923 61.9564 107.721 61.1491 107.721 61.0684C104.855 66.235 102.655 68.8184 101.121 68.8184C99.3047 68.8184 98.3965 65.2057 98.3965 57.9805ZM120.98 62.6426C120.94 62.2793 120.92 61.9362 120.92 61.6133C120.92 59.0299 121.768 56.3659 123.463 53.6211C125.199 50.8763 127.419 49.5039 130.123 49.5039C130.648 49.5039 131.072 49.6654 131.395 49.9883C131.717 50.2708 131.879 50.7754 131.879 51.502C131.879 52.1882 131.677 53.0156 131.273 53.9844C130.91 54.9128 130.325 55.8613 129.518 56.8301C128.751 57.7988 128.085 58.5859 127.52 59.1914C126.954 59.7969 126.147 60.584 125.098 61.5527C124.089 62.5215 123.483 63.1068 123.281 63.3086C123.241 63.6315 123.221 63.8132 123.221 63.8535C123.221 64.9434 123.745 65.791 124.795 66.3965C125.844 67.002 126.934 67.3047 128.064 67.3047C130.769 67.3047 132.908 66.8203 134.482 65.8516C136.097 64.8828 137.954 63.248 140.053 60.9473C140.376 60.5436 140.557 60.2207 140.598 59.9785C140.678 59.7363 140.9 59.474 141.264 59.1914C141.667 59.3529 141.869 59.7363 141.869 60.3418C141.465 61.5931 140.658 62.9453 139.447 64.3984C138.236 65.8112 136.803 67.0221 135.148 68.0312C132.848 69.3633 130.89 70.0293 129.275 70.0293C127.701 70.0293 126.167 69.4844 124.674 68.3945C123.18 67.3047 121.949 65.3874 120.98 62.6426ZM130.244 51.7441C128.508 51.7441 126.894 52.6725 125.4 54.5293C123.907 56.3861 123.16 58.1621 123.16 59.8574C123.16 60.4225 123.201 60.8262 123.281 61.0684C124.775 60.2611 126.309 58.8887 127.883 56.9512C129.457 54.9733 130.244 53.2376 130.244 51.7441ZM140.9 64.2773C141.708 61.6133 142.576 59.474 143.504 57.8594C144.473 56.2448 145.623 55.0944 146.955 54.4082C148.287 53.6816 149.498 53.2376 150.588 53.0762C151.678 52.8743 153.191 52.7734 155.129 52.7734C155.25 52.2891 155.452 51.3405 155.734 49.9277C156.017 48.4746 156.219 47.5059 156.34 47.0215C156.501 46.4967 156.723 45.7096 157.006 44.6602C157.49 42.9245 157.975 41.6126 158.459 40.7246C158.984 39.7962 159.307 39.2109 159.428 38.9688C159.549 38.7266 159.63 38.5651 159.67 38.4844C159.751 38.3633 159.852 38.2422 159.973 38.1211C160.134 37.9596 160.396 37.8789 160.76 37.8789C162.011 37.8789 162.637 39.2109 162.637 41.875V42.4199C162.637 44.5189 161.749 47.4251 159.973 51.1387C158.197 54.8118 157.309 57.6172 157.309 59.5547C157.309 63.8737 158.479 66.0332 160.82 66.0332C161.587 66.0332 162.637 65.7305 163.969 65.125C165.301 64.5195 166.35 64.2168 167.117 64.2168L167.723 64.2773C167.036 65.3268 166.007 66.1543 164.635 66.7598C163.303 67.3652 162.193 67.668 161.305 67.668C160.457 67.668 159.872 67.6478 159.549 67.6074C159.226 67.5671 158.923 67.4863 158.641 67.3652C158.358 67.2038 158.116 67.0827 157.914 67.002C157.753 66.9212 157.551 66.7396 157.309 66.457C157.107 66.1341 156.945 65.9121 156.824 65.791C156.743 65.6699 156.602 65.3874 156.4 64.9434C156.199 64.4993 156.057 64.2168 155.977 64.0957C155.936 63.9746 155.795 63.6315 155.553 63.0664C155.351 62.5013 155.21 62.138 155.129 61.9766C155.008 62.0977 154.544 62.6022 153.736 63.4902C152.929 64.3379 152.364 64.9232 152.041 65.2461C151.718 65.5286 151.153 66.013 150.346 66.6992C149.579 67.3854 148.933 67.8698 148.408 68.1523C146.915 68.9596 145.583 69.3633 144.412 69.3633C143.282 69.3633 142.454 69.1009 141.93 68.5762C141.445 68.0111 141.143 67.4258 141.021 66.8203C140.941 66.1745 140.9 65.3268 140.9 64.2773ZM151.859 55.0137C149.599 55.0137 147.561 56.0632 145.744 58.1621C143.968 60.2611 143.08 62.3802 143.08 64.5195C143.08 66.6185 143.645 67.668 144.775 67.668C146.35 67.668 148.368 66.4772 150.83 64.0957C153.333 61.6738 154.584 59.6152 154.584 57.9199C154.584 56.9108 154.362 56.1842 153.918 55.7402C153.514 55.2559 152.828 55.0137 151.859 55.0137ZM160.881 40.7852C159.831 42.2383 158.964 44.196 158.277 46.6582C157.632 49.0801 157.309 51.1185 157.309 52.7734C157.309 52.8542 157.329 53.0358 157.369 53.3184L157.914 52.7734C158.398 52.2891 159.387 49.4232 160.881 44.1758L160.941 43.4492C160.941 42.9648 160.941 42.6621 160.941 42.541C160.941 42.4199 160.921 42.1172 160.881 41.6328C160.881 41.1484 160.881 40.8659 160.881 40.7852ZM166.088 64.2773C166.895 61.6133 167.763 59.474 168.691 57.8594C169.66 56.2448 170.811 55.0944 172.143 54.4082C173.475 53.6816 174.686 53.2376 175.775 53.0762C176.865 52.8743 178.379 52.7734 180.316 52.7734C180.438 52.2891 180.639 51.3405 180.922 49.9277C181.204 48.4746 181.406 47.5059 181.527 47.0215C181.689 46.4967 181.911 45.7096 182.193 44.6602C182.678 42.9245 183.162 41.6126 183.646 40.7246C184.171 39.7962 184.494 39.2109 184.615 38.9688C184.736 38.7266 184.817 38.5651 184.857 38.4844C184.938 38.3633 185.039 38.2422 185.16 38.1211C185.322 37.9596 185.584 37.8789 185.947 37.8789C187.199 37.8789 187.824 39.2109 187.824 41.875V42.4199C187.824 44.5189 186.936 47.4251 185.16 51.1387C183.384 54.8118 182.496 57.6172 182.496 59.5547C182.496 63.8737 183.667 66.0332 186.008 66.0332C186.775 66.0332 187.824 65.7305 189.156 65.125C190.488 64.5195 191.538 64.2168 192.305 64.2168L192.91 64.2773C192.224 65.3268 191.195 66.1543 189.822 66.7598C188.49 67.3652 187.38 67.668 186.492 67.668C185.645 67.668 185.059 67.6478 184.736 67.6074C184.413 67.5671 184.111 67.4863 183.828 67.3652C183.546 67.2038 183.303 67.0827 183.102 67.002C182.94 66.9212 182.738 66.7396 182.496 66.457C182.294 66.1341 182.133 65.9121 182.012 65.791C181.931 65.6699 181.79 65.3874 181.588 64.9434C181.386 64.4993 181.245 64.2168 181.164 64.0957C181.124 63.9746 180.982 63.6315 180.74 63.0664C180.538 62.5013 180.397 62.138 180.316 61.9766C180.195 62.0977 179.731 62.6022 178.924 63.4902C178.117 64.3379 177.551 64.9232 177.229 65.2461C176.906 65.5286 176.34 66.013 175.533 66.6992C174.766 67.3854 174.12 67.8698 173.596 68.1523C172.102 68.9596 170.77 69.3633 169.6 69.3633C168.469 69.3633 167.642 69.1009 167.117 68.5762C166.633 68.0111 166.33 67.4258 166.209 66.8203C166.128 66.1745 166.088 65.3268 166.088 64.2773ZM177.047 55.0137C174.786 55.0137 172.748 56.0632 170.932 58.1621C169.156 60.2611 168.268 62.3802 168.268 64.5195C168.268 66.6185 168.833 67.668 169.963 67.668C171.537 67.668 173.555 66.4772 176.018 64.0957C178.52 61.6738 179.771 59.6152 179.771 57.9199C179.771 56.9108 179.549 56.1842 179.105 55.7402C178.702 55.2559 178.016 55.0137 177.047 55.0137ZM186.068 40.7852C185.019 42.2383 184.151 44.196 183.465 46.6582C182.819 49.0801 182.496 51.1185 182.496 52.7734C182.496 52.8542 182.516 53.0358 182.557 53.3184L183.102 52.7734C183.586 52.2891 184.575 49.4232 186.068 44.1758L186.129 43.4492C186.129 42.9648 186.129 42.6621 186.129 42.541C186.129 42.4199 186.109 42.1172 186.068 41.6328C186.068 41.1484 186.068 40.8659 186.068 40.7852ZM191.881 56.043L192.123 55.2559C192.93 52.6725 193.617 51.3809 194.182 51.3809C194.989 51.3809 195.393 51.6836 195.393 52.2891C195.393 52.4102 195.372 52.5312 195.332 52.6523C193.798 56.4062 193.031 59.9785 193.031 63.3691C193.031 64.903 193.415 66.1947 194.182 67.2441C194.949 68.2533 196.119 68.7578 197.693 68.7578C201.649 67.224 204.132 66.457 205.141 66.457C205.464 66.457 205.625 66.5378 205.625 66.6992C205.625 67.1836 204.576 67.89 202.477 68.8184C200.378 69.7064 198.723 70.1504 197.512 70.1504C196.341 70.1504 195.453 70.0495 194.848 69.8477C194.242 69.6862 193.798 69.5247 193.516 69.3633C193.233 69.2018 192.89 68.8587 192.486 68.334C192.083 67.7689 191.82 67.0423 191.699 66.1543C191.578 65.2259 191.518 63.9141 191.518 62.2188C191.518 60.5234 191.639 58.4648 191.881 56.043ZM217.432 62.7031C217.432 61.9766 217.432 60.7253 217.432 58.9492C217.472 57.1328 217.492 55.5788 217.492 54.2871C216.362 54.5293 214.707 55.9824 212.527 58.6465C210.388 61.3105 209.217 62.7031 209.016 62.8242C207.441 64.9232 206.21 66.4167 205.322 67.3047C204.959 67.7891 204.374 68.0312 203.566 68.0312V66.6992L206.17 58.2832C206.17 55.3366 206.674 53.1569 207.684 51.7441C207.966 51.3405 208.229 51.1387 208.471 51.1387C208.874 51.1387 209.076 51.8249 209.076 53.1973C209.076 54.5293 208.874 56.0228 208.471 57.6777C208.067 59.2923 207.865 60.6445 207.865 61.7344C208.188 61.4115 209.157 60.2812 210.771 58.3438C212.386 56.4062 213.355 55.276 213.678 54.9531C213.96 54.7917 214.445 54.388 215.131 53.7422C216.584 52.4505 217.855 51.8047 218.945 51.8047C219.551 51.8047 219.934 52.0065 220.096 52.4102C220.136 52.8542 220.156 53.5807 220.156 54.5898C220.156 55.5586 219.995 57.1126 219.672 59.252C219.349 61.3509 219.167 63.026 219.127 64.2773C219.127 66.1745 219.914 67.123 221.488 67.123C222.618 67.123 223.708 66.8203 224.758 66.2148C225.807 65.569 226.655 64.8626 227.301 64.0957C227.947 63.2884 228.693 62.3802 229.541 61.3711C230.389 60.3216 231.135 59.5547 231.781 59.0703V59.6758C231.781 61.6133 230.53 63.6315 228.027 65.7305C225.525 67.7891 223.244 68.8184 221.186 68.8184H219.188C218.582 68.4147 218.178 68.0312 217.977 67.668C217.815 67.3047 217.694 67.0423 217.613 66.8809C217.533 66.7194 217.472 66.4772 217.432 66.1543C217.432 65.791 217.432 65.5286 217.432 65.3672V62.7031ZM243.951 56.1035L243.467 68.5762C243.467 68.6165 243.467 68.7982 243.467 69.1211C243.507 69.444 243.527 69.6458 243.527 69.7266C244.738 69.2422 246.535 68.3138 248.916 66.9414C251.298 65.5286 253.497 64.5397 255.516 63.9746C255.919 64.2168 256.121 64.5195 256.121 64.8828C256.121 64.9635 255.193 65.4479 253.336 66.3359C247.523 69.1615 244.052 71.2402 242.922 72.5723C242.316 78.7884 241.812 82.8249 241.408 84.6816C241.045 86.5384 240.803 87.709 240.682 88.1934C240.601 88.7181 240.379 89.4648 240.016 90.4336C239.652 91.4023 239.269 92.1087 238.865 92.5527C237.775 93.7637 236.524 94.3691 235.111 94.3691C233.699 94.3691 232.306 94.0866 230.934 93.5215C229.602 92.9967 228.633 92.3105 228.027 91.4629C227.947 91.0592 227.906 90.3932 227.906 89.4648C227.906 86.4779 229.501 83.0469 232.689 79.1719C232.932 78.9701 233.678 78.3646 234.93 77.3555C238.28 74.651 240.197 73.0566 240.682 72.5723C241.085 71.8861 241.287 70.554 241.287 68.5762C241.287 68.4551 241.267 68.0716 241.227 67.4258C241.227 66.7799 241.227 66.3965 241.227 66.2754C238.32 68.2129 235.898 69.1816 233.961 69.1816C232.266 69.1009 231.035 68.1523 230.268 66.3359C229.945 65.5286 229.783 64.5599 229.783 63.4297C229.783 62.2591 230.308 60.9069 231.357 59.373C233.053 56.9512 235.858 55.1751 239.773 54.0449C242.559 54.0449 243.951 54.7311 243.951 56.1035ZM229.723 89.2227C229.723 90.2318 230.288 91.0391 231.418 91.6445C232.548 92.2904 233.699 92.6133 234.869 92.6133C236.08 92.6133 237.109 91.8867 237.957 90.4336C238.845 89.0208 239.451 87.2448 239.773 85.1055C240.379 81.513 240.682 78.5664 240.682 76.2656V74.873C238.018 76.6087 235.515 78.8086 233.174 81.4727C230.873 84.1771 229.723 86.7604 229.723 89.2227ZM232.023 66.0332C232.023 67.002 232.75 67.4863 234.203 67.4863C236.665 67.4056 238.562 66.4368 239.895 64.5801C241.227 62.7233 241.893 61.1087 241.893 59.7363C241.893 59.6152 241.893 59.4941 241.893 59.373V58.7676C241.893 57.8796 241.691 57.1732 241.287 56.6484C240.883 56.0833 240.318 55.8008 239.592 55.8008C239.43 55.7604 239.249 55.7402 239.047 55.7402C237.23 55.7402 235.555 56.7695 234.021 58.8281C232.528 60.8867 231.781 62.7233 231.781 64.3379C231.781 64.903 231.862 65.4681 232.023 66.0332Z" fill="#A9622C"/>
<path d="M93.3301 17.8789L93.0371 22H82.207V21.3066C82.3633 21.2936 82.5879 21.2708 82.8809 21.2383C83.1803 21.2057 83.3887 21.1634 83.5059 21.1113C83.7012 21.0267 83.8411 20.903 83.9258 20.7402C84.0169 20.5775 84.0625 20.3691 84.0625 20.1152V10.1934C84.0625 9.97201 84.0234 9.77669 83.9453 9.60742C83.8737 9.43815 83.7272 9.30143 83.5059 9.19727C83.3561 9.11914 83.1445 9.04427 82.8711 8.97266C82.6042 8.89453 82.3828 8.84896 82.207 8.83594V8.14258H88.0566V8.83594C87.8743 8.84245 87.6367 8.875 87.3438 8.93359C87.0573 8.99219 86.849 9.04427 86.7188 9.08984C86.4974 9.16797 86.3444 9.30143 86.2598 9.49023C86.1816 9.67904 86.1426 9.88086 86.1426 10.0957V19.4023C86.1426 19.832 86.1621 20.1673 86.2012 20.4082C86.2467 20.6426 86.3477 20.8249 86.5039 20.9551C86.6536 21.0723 86.875 21.1504 87.168 21.1895C87.4674 21.222 87.8841 21.2383 88.418 21.2383C88.6589 21.2383 88.9095 21.2318 89.1699 21.2188C89.4303 21.2057 89.6777 21.1797 89.9121 21.1406C90.14 21.1016 90.3483 21.0495 90.5371 20.9844C90.7324 20.9128 90.8757 20.8249 90.9668 20.7207C91.2337 20.4212 91.543 19.9688 91.8945 19.3633C92.2526 18.7513 92.5 18.2565 92.6367 17.8789H93.3301ZM108.291 8.83594C108.109 8.84245 107.842 8.88151 107.49 8.95312C107.139 9.02474 106.852 9.13216 106.631 9.27539C106.41 9.42513 106.257 9.73438 106.172 10.2031C106.087 10.6719 106.045 11.2448 106.045 11.9219V17.9473C106.045 18.7155 105.885 19.3828 105.566 19.9492C105.247 20.5156 104.827 20.9811 104.307 21.3457C103.792 21.6973 103.249 21.9479 102.676 22.0977C102.109 22.2539 101.566 22.332 101.045 22.332C100.212 22.332 99.4694 22.2214 98.8184 22C98.1673 21.7852 97.6204 21.4922 97.1777 21.1211C96.7415 20.75 96.4128 20.3268 96.1914 19.8516C95.9701 19.3698 95.8594 18.8685 95.8594 18.3477V10.1543C95.8594 9.92643 95.8203 9.73763 95.7422 9.58789C95.6706 9.43164 95.5208 9.28841 95.293 9.1582C95.1302 9.06706 94.9219 8.99544 94.668 8.94336C94.4141 8.88477 94.2057 8.84896 94.043 8.83594V8.14258H99.8145V8.83594C99.6322 8.84245 99.401 8.87174 99.1211 8.92383C98.8477 8.97591 98.6458 9.02474 98.5156 9.07031C98.2943 9.14844 98.1445 9.27865 98.0664 9.46094C97.9948 9.64323 97.959 9.8418 97.959 10.0566V17.7129C97.959 18.084 97.998 18.4746 98.0762 18.8848C98.1608 19.2884 98.3236 19.666 98.5645 20.0176C98.8184 20.3757 99.1634 20.6686 99.5996 20.8965C100.036 21.1243 100.635 21.2383 101.396 21.2383C102.113 21.2383 102.712 21.1243 103.193 20.8965C103.682 20.6686 104.066 20.3691 104.346 19.998C104.613 19.6465 104.801 19.2786 104.912 18.8945C105.023 18.5104 105.078 18.123 105.078 17.7324V12.0488C105.078 11.3262 105.026 10.737 104.922 10.2812C104.818 9.81901 104.665 9.51628 104.463 9.37305C104.235 9.21029 103.923 9.08333 103.525 8.99219C103.135 8.90104 102.835 8.84896 102.627 8.83594V8.14258H108.291V8.83594ZM124.736 17.1465H120.332V21.5508H119.092V17.1465H114.688V15.9258H119.092V11.5215H120.332V15.9258H124.736V17.1465ZM144.854 22H139.082V21.3066C139.59 21.2741 140.01 21.209 140.342 21.1113C140.68 21.0137 140.85 20.8932 140.85 20.75C140.85 20.6914 140.843 20.6198 140.83 20.5352C140.817 20.4505 140.798 20.3757 140.771 20.3105L139.619 17.2051H134.766C134.583 17.6608 134.434 18.0579 134.316 18.3965C134.206 18.735 134.105 19.0475 134.014 19.334C133.929 19.6139 133.87 19.8418 133.838 20.0176C133.805 20.1934 133.789 20.3366 133.789 20.4473C133.789 20.7077 133.994 20.9095 134.404 21.0527C134.814 21.196 135.277 21.2806 135.791 21.3066V22H130.576V21.3066C130.745 21.2936 130.957 21.2578 131.211 21.1992C131.465 21.1341 131.673 21.0495 131.836 20.9453C132.096 20.7695 132.298 20.5872 132.441 20.3984C132.585 20.2031 132.725 19.9362 132.861 19.5977C133.558 17.8594 134.326 15.9062 135.166 13.7383C136.006 11.5703 136.755 9.63997 137.412 7.94727H138.193L142.812 19.9004C142.91 20.1543 143.021 20.3594 143.145 20.5156C143.268 20.6719 143.441 20.8249 143.662 20.9746C143.812 21.0658 144.007 21.1439 144.248 21.209C144.489 21.2676 144.691 21.3001 144.854 21.3066V22ZM139.268 16.3359L137.168 10.9648L135.107 16.3359H139.268ZM156.475 17.8789L156.182 22H145.352V21.3066C145.508 21.2936 145.732 21.2708 146.025 21.2383C146.325 21.2057 146.533 21.1634 146.65 21.1113C146.846 21.0267 146.986 20.903 147.07 20.7402C147.161 20.5775 147.207 20.3691 147.207 20.1152V10.1934C147.207 9.97201 147.168 9.77669 147.09 9.60742C147.018 9.43815 146.872 9.30143 146.65 9.19727C146.501 9.11914 146.289 9.04427 146.016 8.97266C145.749 8.89453 145.527 8.84896 145.352 8.83594V8.14258H151.201V8.83594C151.019 8.84245 150.781 8.875 150.488 8.93359C150.202 8.99219 149.993 9.04427 149.863 9.08984C149.642 9.16797 149.489 9.30143 149.404 9.49023C149.326 9.67904 149.287 9.88086 149.287 10.0957V19.4023C149.287 19.832 149.307 20.1673 149.346 20.4082C149.391 20.6426 149.492 20.8249 149.648 20.9551C149.798 21.0723 150.02 21.1504 150.312 21.1895C150.612 21.222 151.029 21.2383 151.562 21.2383C151.803 21.2383 152.054 21.2318 152.314 21.2188C152.575 21.2057 152.822 21.1797 153.057 21.1406C153.285 21.1016 153.493 21.0495 153.682 20.9844C153.877 20.9128 154.02 20.8249 154.111 20.7207C154.378 20.4212 154.688 19.9688 155.039 19.3633C155.397 18.7513 155.645 18.2565 155.781 17.8789H156.475ZM169.072 17.918L168.809 22H157.305V21.3066C157.5 21.2936 157.76 21.2676 158.086 21.2285C158.411 21.1829 158.623 21.1374 158.721 21.0918C158.929 20.9941 159.072 20.8672 159.15 20.7109C159.235 20.5547 159.277 20.3561 159.277 20.1152V10.1543C159.277 9.93945 159.242 9.75065 159.17 9.58789C159.098 9.41862 158.949 9.2819 158.721 9.17773C158.545 9.0931 158.307 9.01823 158.008 8.95312C157.715 8.88802 157.48 8.84896 157.305 8.83594V8.14258H168.027V11.4824H167.295C167.165 10.9876 166.882 10.4635 166.445 9.91016C166.016 9.35026 165.605 9.04427 165.215 8.99219C165.013 8.96615 164.772 8.94661 164.492 8.93359C164.212 8.92057 163.893 8.91406 163.535 8.91406H161.357V14.4219H162.92C163.421 14.4219 163.786 14.3763 164.014 14.2852C164.248 14.1875 164.453 14.028 164.629 13.8066C164.772 13.6178 164.893 13.3672 164.99 13.0547C165.094 12.7357 165.163 12.4362 165.195 12.1562H165.928V17.5762H165.195C165.169 17.2637 165.098 16.9349 164.98 16.5898C164.87 16.2383 164.753 15.9844 164.629 15.8281C164.427 15.5742 164.196 15.4082 163.936 15.3301C163.682 15.252 163.343 15.2129 162.92 15.2129H161.357V19.373C161.357 19.7897 161.387 20.1185 161.445 20.3594C161.504 20.6003 161.618 20.7826 161.787 20.9062C161.956 21.0299 162.188 21.1113 162.48 21.1504C162.773 21.1829 163.19 21.1992 163.73 21.1992C163.945 21.1992 164.229 21.1992 164.58 21.1992C164.932 21.1992 165.228 21.1862 165.469 21.1602C165.716 21.1341 165.97 21.0885 166.23 21.0234C166.497 20.9518 166.686 20.8574 166.797 20.7402C167.096 20.4277 167.409 19.9557 167.734 19.3242C168.066 18.6862 168.278 18.2174 168.369 17.918H169.072ZM183.76 22H177.275V21.3066C177.809 21.2936 178.239 21.2448 178.564 21.1602C178.896 21.069 179.062 20.9323 179.062 20.75C179.062 20.6523 178.988 20.4505 178.838 20.1445C178.688 19.8385 178.496 19.4967 178.262 19.1191C178.001 18.7025 177.692 18.2142 177.334 17.6543C176.976 17.0879 176.621 16.5475 176.27 16.0332C175.697 16.7884 175.046 17.6999 174.316 18.7676C173.587 19.8288 173.223 20.4538 173.223 20.6426C173.223 20.8574 173.32 21.0169 173.516 21.1211C173.717 21.2188 174.157 21.2806 174.834 21.3066V22H169.658V21.3066C169.827 21.2936 170.042 21.2708 170.303 21.2383C170.57 21.1992 170.788 21.1374 170.957 21.0527C171.296 20.8704 171.566 20.6751 171.768 20.4668C171.976 20.252 172.184 20.0013 172.393 19.7148C172.809 19.1419 173.343 18.429 173.994 17.5762C174.645 16.7168 175.221 15.9355 175.723 15.2324C175.345 14.679 174.863 13.9792 174.277 13.1328C173.691 12.2799 173.066 11.3685 172.402 10.3984C172.122 9.98828 171.901 9.69857 171.738 9.5293C171.582 9.36003 171.37 9.21354 171.104 9.08984C170.947 9.01823 170.729 8.96289 170.449 8.92383C170.176 8.87826 169.958 8.84896 169.795 8.83594V8.14258H176.211V8.83594C175.833 8.84896 175.439 8.89779 175.029 8.98242C174.626 9.06055 174.424 9.18424 174.424 9.35352C174.424 9.47721 174.505 9.69531 174.668 10.0078C174.831 10.3138 175.023 10.6426 175.244 10.9941C175.472 11.3587 175.726 11.7624 176.006 12.2051C176.286 12.6478 176.628 13.1589 177.031 13.7383C177.767 12.7422 178.402 11.8438 178.936 11.043C179.469 10.2422 179.736 9.72135 179.736 9.48047C179.736 9.27214 179.613 9.11914 179.365 9.02148C179.124 8.92383 178.714 8.86198 178.135 8.83594V8.14258H183.301V8.83594C183.138 8.84245 182.923 8.86849 182.656 8.91406C182.396 8.95312 182.178 9.01172 182.002 9.08984C181.663 9.2526 181.41 9.42839 181.24 9.61719C181.077 9.80599 180.856 10.0794 180.576 10.4375C180.055 11.1081 179.574 11.7396 179.131 12.332C178.695 12.918 178.167 13.6341 177.549 14.4805C178.07 15.2227 178.649 16.0658 179.287 17.0098C179.932 17.9538 180.547 18.8555 181.133 19.7148C181.335 20.0078 181.566 20.2878 181.826 20.5547C182.087 20.8151 182.298 20.9941 182.461 21.0918C182.617 21.1829 182.826 21.2415 183.086 21.2676C183.353 21.2871 183.577 21.3001 183.76 21.3066V22Z" fill="#A9622C"/>
<path d="M90.127 104H80.9766V102.672C81.1523 102.47 81.3965 102.245 81.709 101.998C82.0215 101.744 82.3926 101.471 82.8223 101.178C83.0827 101.002 83.3952 100.81 83.7598 100.602C84.1243 100.393 84.5378 100.165 85 99.918C85.5143 99.6445 85.9082 99.4036 86.1816 99.1953C86.4616 98.987 86.7155 98.7298 86.9434 98.4238C87.0931 98.222 87.2135 97.9714 87.3047 97.6719C87.3958 97.3659 87.4414 96.9329 87.4414 96.373C87.4414 95.5592 87.2233 94.9635 86.7871 94.5859C86.3509 94.2018 85.791 94.0098 85.1074 94.0098C84.6842 94.0098 84.2839 94.0944 83.9062 94.2637C83.5286 94.4264 83.2454 94.6543 83.0566 94.9473C83.1022 95.1556 83.1576 95.403 83.2227 95.6895C83.2943 95.9759 83.3301 96.2559 83.3301 96.5293C83.3301 96.7767 83.2259 96.998 83.0176 97.1934C82.8158 97.3822 82.513 97.4766 82.1094 97.4766C81.7839 97.4766 81.5332 97.3659 81.3574 97.1445C81.1816 96.9167 81.0938 96.6139 81.0938 96.2363C81.0938 95.8848 81.1914 95.5332 81.3867 95.1816C81.582 94.8236 81.862 94.4948 82.2266 94.1953C82.5846 93.9023 83.0273 93.6647 83.5547 93.4824C84.082 93.3001 84.6517 93.209 85.2637 93.209C86.5983 93.209 87.6562 93.5085 88.4375 94.1074C89.2253 94.6999 89.6191 95.4941 89.6191 96.4902C89.6191 96.9655 89.5475 97.3984 89.4043 97.7891C89.2676 98.1797 89.043 98.5247 88.7305 98.8242C88.3854 99.1562 87.9818 99.4427 87.5195 99.6836C87.0573 99.918 86.3509 100.247 85.4004 100.67C84.834 100.924 84.3066 101.191 83.8184 101.471C83.3301 101.744 82.9297 102.011 82.6172 102.271H90.127V104ZM101.982 100.328C101.982 101.422 101.51 102.363 100.566 103.15C99.6224 103.938 98.3822 104.332 96.8457 104.332C95.4069 104.332 94.2546 103.971 93.3887 103.248C92.5228 102.525 92.0898 101.594 92.0898 100.455C92.0898 99.6152 92.3438 98.9154 92.8516 98.3555C93.3659 97.7891 94.1243 97.3105 95.127 96.9199C94.3001 96.4577 93.6816 95.9499 93.2715 95.3965C92.8613 94.8431 92.6562 94.2181 92.6562 93.5215C92.6562 92.4603 93.1055 91.5716 94.0039 90.8555C94.9089 90.1393 95.9896 89.7812 97.2461 89.7812C98.5026 89.7812 99.5182 90.1198 100.293 90.7969C101.074 91.474 101.465 92.3236 101.465 93.3457C101.465 94.0033 101.25 94.6283 100.82 95.2207C100.391 95.8066 99.7591 96.2884 98.9258 96.666C100.007 97.1283 100.785 97.6393 101.26 98.1992C101.742 98.7591 101.982 99.4688 101.982 100.328ZM99.6191 93.2383C99.6191 92.444 99.3815 91.7995 98.9062 91.3047C98.4375 90.8034 97.8353 90.5527 97.0996 90.5527C96.3639 90.5527 95.7617 90.7936 95.293 91.2754C94.8242 91.7507 94.5898 92.3431 94.5898 93.0527C94.5898 93.7363 94.8568 94.3158 95.3906 94.791C95.9245 95.2663 96.875 95.7741 98.2422 96.3145C98.7305 96.002 99.082 95.5885 99.2969 95.0742C99.5117 94.5599 99.6191 93.9479 99.6191 93.2383ZM100.029 100.787C100.029 100.377 99.9414 100.019 99.7656 99.7129C99.5898 99.4004 99.3359 99.1172 99.0039 98.8633C98.6849 98.6159 98.2389 98.3587 97.666 98.0918C97.0996 97.8184 96.4844 97.5417 95.8203 97.2617C95.1953 97.6003 94.7363 98.0332 94.4434 98.5605C94.1504 99.0814 94.0039 99.6771 94.0039 100.348C94.0039 101.305 94.2839 102.079 94.8438 102.672C95.4102 103.258 96.1621 103.551 97.0996 103.551C97.998 103.551 98.7109 103.29 99.2383 102.77C99.7656 102.249 100.029 101.588 100.029 100.787ZM117.92 99.0879C117.92 99.765 117.812 100.432 117.598 101.09C117.383 101.741 117.077 102.294 116.68 102.75C116.23 103.271 115.71 103.658 115.117 103.912C114.525 104.166 113.861 104.293 113.125 104.293C112.513 104.293 111.93 104.179 111.377 103.951C110.824 103.717 110.332 103.378 109.902 102.936C109.479 102.499 109.141 101.969 108.887 101.344C108.639 100.712 108.516 100.006 108.516 99.2246C108.516 97.7207 108.952 96.4902 109.824 95.5332C110.703 94.5762 111.852 94.0977 113.271 94.0977C114.619 94.0977 115.729 94.5534 116.602 95.4648C117.48 96.3698 117.92 97.5775 117.92 99.0879ZM115.898 99.1074C115.898 98.6191 115.85 98.1048 115.752 97.5645C115.654 97.0176 115.508 96.5553 115.312 96.1777C115.104 95.7741 114.831 95.4518 114.492 95.2109C114.154 94.9635 113.74 94.8398 113.252 94.8398C112.751 94.8398 112.321 94.9635 111.963 95.2109C111.611 95.4583 111.325 95.7969 111.104 96.2266C110.895 96.6237 110.749 97.0762 110.664 97.584C110.579 98.0918 110.537 98.5833 110.537 99.0586C110.537 99.6836 110.586 100.263 110.684 100.797C110.788 101.324 110.951 101.796 111.172 102.213C111.393 102.63 111.67 102.958 112.002 103.199C112.34 103.434 112.757 103.551 113.252 103.551C114.066 103.551 114.71 103.157 115.186 102.369C115.661 101.581 115.898 100.494 115.898 99.1074ZM123.77 104.254C122.376 104.254 121.286 103.792 120.498 102.867C119.71 101.943 119.316 100.702 119.316 99.1465C119.316 98.4694 119.421 97.8379 119.629 97.252C119.844 96.6595 120.153 96.1224 120.557 95.6406C120.941 95.1784 121.423 94.8073 122.002 94.5273C122.581 94.2409 123.213 94.0977 123.896 94.0977C124.84 94.0977 125.609 94.3255 126.201 94.7812C126.794 95.2305 127.09 95.8457 127.09 96.627C127.09 96.9525 127.012 97.2422 126.855 97.4961C126.699 97.7435 126.442 97.8672 126.084 97.8672C125.7 97.8672 125.4 97.7695 125.186 97.5742C124.977 97.3789 124.873 97.1608 124.873 96.9199C124.873 96.627 124.912 96.3275 124.99 96.0215C125.068 95.709 125.114 95.4811 125.127 95.3379C125.01 95.1361 124.834 95.0026 124.6 94.9375C124.372 94.8659 124.124 94.8301 123.857 94.8301C123.545 94.8301 123.245 94.8984 122.959 95.0352C122.679 95.1654 122.406 95.4095 122.139 95.7676C121.898 96.0931 121.702 96.5326 121.553 97.0859C121.403 97.6393 121.328 98.3001 121.328 99.0684C121.328 100.279 121.595 101.269 122.129 102.037C122.669 102.799 123.376 103.18 124.248 103.18C124.88 103.18 125.407 103.027 125.83 102.721C126.26 102.415 126.657 101.956 127.021 101.344L127.646 101.754C127.217 102.522 126.65 103.131 125.947 103.58C125.244 104.029 124.518 104.254 123.77 104.254ZM134.346 103.58C133.923 103.756 133.522 103.902 133.145 104.02C132.767 104.143 132.305 104.205 131.758 104.205C130.951 104.205 130.381 104.003 130.049 103.6C129.723 103.189 129.561 102.613 129.561 101.871V95.3477H127.822V94.4102H129.6V91.4121H131.377V94.4102H134.141V95.3477H131.396V100.729C131.396 101.132 131.41 101.471 131.436 101.744C131.468 102.011 131.54 102.245 131.65 102.447C131.755 102.636 131.911 102.779 132.119 102.877C132.327 102.975 132.607 103.023 132.959 103.023C133.122 103.023 133.359 103.01 133.672 102.984C133.991 102.952 134.215 102.913 134.346 102.867V103.58ZM149.658 104H140.508V102.672C140.684 102.47 140.928 102.245 141.24 101.998C141.553 101.744 141.924 101.471 142.354 101.178C142.614 101.002 142.926 100.81 143.291 100.602C143.656 100.393 144.069 100.165 144.531 99.918C145.046 99.6445 145.439 99.4036 145.713 99.1953C145.993 98.987 146.247 98.7298 146.475 98.4238C146.624 98.222 146.745 97.9714 146.836 97.6719C146.927 97.3659 146.973 96.9329 146.973 96.373C146.973 95.5592 146.755 94.9635 146.318 94.5859C145.882 94.2018 145.322 94.0098 144.639 94.0098C144.215 94.0098 143.815 94.0944 143.438 94.2637C143.06 94.4264 142.777 94.6543 142.588 94.9473C142.633 95.1556 142.689 95.403 142.754 95.6895C142.826 95.9759 142.861 96.2559 142.861 96.5293C142.861 96.7767 142.757 96.998 142.549 97.1934C142.347 97.3822 142.044 97.4766 141.641 97.4766C141.315 97.4766 141.064 97.3659 140.889 97.1445C140.713 96.9167 140.625 96.6139 140.625 96.2363C140.625 95.8848 140.723 95.5332 140.918 95.1816C141.113 94.8236 141.393 94.4948 141.758 94.1953C142.116 93.9023 142.559 93.6647 143.086 93.4824C143.613 93.3001 144.183 93.209 144.795 93.209C146.13 93.209 147.188 93.5085 147.969 94.1074C148.757 94.6999 149.15 95.4941 149.15 96.4902C149.15 96.9655 149.079 97.3984 148.936 97.7891C148.799 98.1797 148.574 98.5247 148.262 98.8242C147.917 99.1562 147.513 99.4427 147.051 99.6836C146.589 99.918 145.882 100.247 144.932 100.67C144.365 100.924 143.838 101.191 143.35 101.471C142.861 101.744 142.461 102.011 142.148 102.271H149.658V104ZM160.635 94.8789C161.051 95.3802 161.361 95.9694 161.562 96.6465C161.771 97.3171 161.875 98.0202 161.875 98.7559C161.875 99.6413 161.748 100.436 161.494 101.139C161.24 101.835 160.892 102.415 160.449 102.877C159.993 103.352 159.453 103.71 158.828 103.951C158.203 104.192 157.507 104.312 156.738 104.312C155.898 104.312 155.15 104.173 154.492 103.893C153.835 103.613 153.301 103.229 152.891 102.74C152.461 102.232 152.139 101.64 151.924 100.963C151.715 100.279 151.611 99.5436 151.611 98.7559C151.611 97.9811 151.712 97.2682 151.914 96.6172C152.122 95.9661 152.445 95.377 152.881 94.8496C153.298 94.3418 153.835 93.9414 154.492 93.6484C155.15 93.3555 155.902 93.209 156.748 93.209C157.64 93.209 158.405 93.3587 159.043 93.6582C159.681 93.9577 160.212 94.3646 160.635 94.8789ZM159.717 98.7559C159.717 97.2064 159.45 96.0052 158.916 95.1523C158.389 94.2995 157.669 93.873 156.758 93.873C155.833 93.873 155.104 94.2995 154.57 95.1523C154.036 96.0052 153.77 97.2064 153.77 98.7559C153.77 100.227 154.023 101.412 154.531 102.311C155.046 103.202 155.781 103.648 156.738 103.648C157.695 103.648 158.431 103.202 158.945 102.311C159.46 101.412 159.717 100.227 159.717 98.7559ZM173.115 104H163.965V102.672C164.141 102.47 164.385 102.245 164.697 101.998C165.01 101.744 165.381 101.471 165.811 101.178C166.071 101.002 166.383 100.81 166.748 100.602C167.113 100.393 167.526 100.165 167.988 99.918C168.503 99.6445 168.896 99.4036 169.17 99.1953C169.45 98.987 169.704 98.7298 169.932 98.4238C170.081 98.222 170.202 97.9714 170.293 97.6719C170.384 97.3659 170.43 96.9329 170.43 96.373C170.43 95.5592 170.212 94.9635 169.775 94.5859C169.339 94.2018 168.779 94.0098 168.096 94.0098C167.673 94.0098 167.272 94.0944 166.895 94.2637C166.517 94.4264 166.234 94.6543 166.045 94.9473C166.09 95.1556 166.146 95.403 166.211 95.6895C166.283 95.9759 166.318 96.2559 166.318 96.5293C166.318 96.7767 166.214 96.998 166.006 97.1934C165.804 97.3822 165.501 97.4766 165.098 97.4766C164.772 97.4766 164.521 97.3659 164.346 97.1445C164.17 96.9167 164.082 96.6139 164.082 96.2363C164.082 95.8848 164.18 95.5332 164.375 95.1816C164.57 94.8236 164.85 94.4948 165.215 94.1953C165.573 93.9023 166.016 93.6647 166.543 93.4824C167.07 93.3001 167.64 93.209 168.252 93.209C169.587 93.209 170.645 93.5085 171.426 94.1074C172.214 94.6999 172.607 95.4941 172.607 96.4902C172.607 96.9655 172.536 97.3984 172.393 97.7891C172.256 98.1797 172.031 98.5247 171.719 98.8242C171.374 99.1562 170.97 99.4427 170.508 99.6836C170.046 99.918 169.339 100.247 168.389 100.67C167.822 100.924 167.295 101.191 166.807 101.471C166.318 101.744 165.918 102.011 165.605 102.271H173.115V104ZM178.818 107.564C178.206 107.564 177.646 107.486 177.139 107.33C176.631 107.18 176.195 106.975 175.83 106.715C175.465 106.454 175.182 106.155 174.98 105.816C174.785 105.478 174.688 105.13 174.688 104.771C174.688 104.452 174.766 104.166 174.922 103.912C175.078 103.652 175.329 103.521 175.674 103.521C176.064 103.521 176.361 103.619 176.562 103.814C176.771 104.003 176.875 104.221 176.875 104.469C176.875 104.677 176.839 104.941 176.768 105.26C176.702 105.579 176.65 105.807 176.611 105.943C176.657 106.002 176.738 106.08 176.855 106.178C176.979 106.275 177.129 106.363 177.305 106.441C177.513 106.539 177.731 106.617 177.959 106.676C178.187 106.734 178.509 106.764 178.926 106.764C179.316 106.764 179.691 106.699 180.049 106.568C180.413 106.438 180.732 106.23 181.006 105.943C181.292 105.644 181.514 105.292 181.67 104.889C181.833 104.492 181.914 103.967 181.914 103.316C181.914 102.965 181.875 102.617 181.797 102.271C181.725 101.926 181.589 101.627 181.387 101.373C181.185 101.119 180.908 100.924 180.557 100.787C180.212 100.644 179.772 100.572 179.238 100.572H177.959V99.4492H178.809C179.707 99.4492 180.355 99.2018 180.752 98.707C181.149 98.2122 181.348 97.4668 181.348 96.4707C181.348 95.6569 181.156 95.0449 180.771 94.6348C180.387 94.2181 179.844 94.0098 179.141 94.0098C178.802 94.0098 178.522 94.0521 178.301 94.1367C178.086 94.2148 177.91 94.293 177.773 94.3711C177.611 94.4622 177.477 94.5632 177.373 94.6738C177.269 94.7845 177.191 94.8659 177.139 94.918C177.184 95.1263 177.24 95.3835 177.305 95.6895C177.37 95.9889 177.402 96.2754 177.402 96.5488C177.402 96.7897 177.298 97.0078 177.09 97.2031C176.888 97.3919 176.589 97.4863 176.191 97.4863C175.846 97.4863 175.592 97.3626 175.43 97.1152C175.273 96.8678 175.195 96.5814 175.195 96.2559C175.195 95.9173 175.29 95.5723 175.479 95.2207C175.667 94.8691 175.947 94.5404 176.318 94.2344C176.689 93.9284 177.142 93.681 177.676 93.4922C178.21 93.3034 178.825 93.209 179.521 93.209C180.322 93.209 180.983 93.3294 181.504 93.5703C182.031 93.8047 182.445 94.0911 182.744 94.4297C183.037 94.7617 183.239 95.11 183.35 95.4746C183.46 95.8392 183.516 96.1517 183.516 96.4121C183.516 96.7376 183.47 97.0664 183.379 97.3984C183.288 97.724 183.138 98.0267 182.93 98.3066C182.702 98.6126 182.399 98.8926 182.021 99.1465C181.65 99.3939 181.182 99.5957 180.615 99.752V99.9082C180.98 99.9408 181.367 100.022 181.777 100.152C182.194 100.283 182.568 100.475 182.9 100.729C183.245 100.995 183.529 101.34 183.75 101.764C183.971 102.18 184.082 102.711 184.082 103.355C184.082 104.605 183.581 105.618 182.578 106.393C181.576 107.174 180.322 107.564 178.818 107.564Z" fill="#A9622C"/>
</svg>
